<svg width="96" height="18" viewBox="0 0 96 18" fill="none" xmlns="http://www.w3.org/2000/svg">
<path d="M6.25486 12.5734C6.23329 12.3568 6.21171 12.1534 6.18655 11.9069C6.43642 11.891 6.61707 11.8681 6.79684 11.8681C7.89517 11.8646 8.99262 11.8435 10.091 11.8717C12.4503 11.9333 14.4106 10.4595 15.1791 8.49879C16.2846 5.68323 14.7899 2.718 12.1825 1.71609C11.4571 1.43788 10.7228 1.29965 9.95254 1.29965C7.38376 1.30141 4.81587 1.29965 2.24709 1.29965C2.10148 1.29965 1.95767 1.29261 1.81117 1.30493C1.4112 1.33663 1.35907 1.39298 1.33929 1.79004C1.3339 1.91154 1.33929 2.03304 1.33929 2.15541C1.33929 6.74149 1.33929 11.3249 1.33929 15.911C1.33929 16.1487 1.33929 16.3873 1.33929 16.6567C1.06785 16.6567 0.874611 16.6567 0.69485 16.6567C0.565422 16.1593 0.538458 1.41323 0.664291 0.706253C0.863826 0.681601 1.08403 0.632298 1.30154 0.632298C4.28378 0.627016 7.26601 0.65519 10.2491 0.621734C12.9689 0.5918 15.3409 2.4574 16.0267 4.88822C16.7035 7.28735 16.1309 9.44964 14.2317 11.1841C13.3213 12.0178 12.178 12.4659 10.9682 12.5469C9.43033 12.6526 7.87271 12.5734 6.25486 12.5734Z" fill="#FAB957"/>
<path d="M2.1096 16.6553C2.1096 11.7734 2.1096 6.93375 2.1096 2.05009C2.32171 2.03249 2.50058 2.00607 2.68034 2.00607C5.24912 2.00255 7.81521 2.00079 10.384 2.00607C12.1843 2.0096 13.9424 3.35839 14.5509 4.94666C14.887 5.82443 14.9221 6.72245 14.7306 7.57381C14.372 9.16736 13.4273 10.3718 11.7807 10.9132C11.3969 11.04 10.9835 11.1316 10.5799 11.1404C9.27487 11.1685 7.9698 11.1545 6.66654 11.1509C6.4652 11.1509 6.23062 11.1862 6.18388 10.8974C6.14613 10.6597 6.28994 10.4686 6.55509 10.444C6.77979 10.4228 7.01078 10.4352 7.23728 10.4352C8.2718 10.4334 9.30902 10.4123 10.3435 10.4387C11.9434 10.4792 13.3438 9.38042 13.7977 8.06773C14.5949 5.7584 13.7114 4.09882 11.8446 3.06081C11.4877 2.86184 11.0275 2.75971 10.6132 2.75443C8.12889 2.72449 5.6437 2.73682 3.1576 2.73506C3.07671 2.73506 2.99582 2.75443 2.84122 2.77556C2.82505 3.0256 2.79449 3.28003 2.79449 3.53183C2.79089 7.60991 2.79269 11.6862 2.79269 15.7643C2.79269 15.9069 2.79808 16.0478 2.79089 16.1913C2.77022 16.6623 2.72348 16.6958 2.1096 16.6553Z" fill="#FAB957"/>
<path d="M4.19012 16.6563C3.92946 16.6563 3.73802 16.6563 3.50253 16.6563C3.50253 12.2595 3.50253 7.90936 3.50253 3.50025C3.73262 3.47736 3.95103 3.4351 4.17034 3.4351C6.17917 3.42981 8.1898 3.48088 10.1968 3.41749C11.8776 3.36466 13.2725 4.73459 13.4514 6.23833C13.6078 7.55367 12.9022 9.1842 11.2682 9.6024C10.8341 9.71333 10.3811 9.78904 9.93258 9.80137C8.9394 9.8313 7.94352 9.81017 6.95035 9.81017C6.74542 9.81017 6.53959 9.81017 6.35624 9.81017C6.07581 9.19652 6.14232 9.07855 6.74003 9.07503C7.85814 9.06975 8.97715 9.04509 10.0953 9.08031C11.3284 9.11905 12.3054 8.35749 12.6065 7.36527C12.9031 6.38537 12.6335 5.38697 11.687 4.62013C11.2547 4.26885 10.7478 4.11565 10.1986 4.11213C8.39652 4.10333 6.59532 4.10685 4.79321 4.11213C4.61345 4.11213 4.43459 4.15439 4.19191 4.18433C4.19012 8.35925 4.19012 12.4902 4.19012 16.6563Z" fill="#FAB957"/>
<path d="M6.23095 8.26917C6.20398 7.70658 6.23994 7.6432 6.71181 7.63968C7.81015 7.62911 8.90759 7.63791 10.0059 7.63439C10.2127 7.63439 10.4239 7.63615 10.6234 7.59565C10.9254 7.53403 11.1492 7.36322 11.187 7.03659C11.2103 6.83585 11.2319 6.63072 11.2211 6.42998C11.1852 5.7952 10.9137 5.54517 10.2297 5.53636C9.17364 5.5258 8.11664 5.53284 7.06055 5.53284C6.63002 5.53284 6.19859 5.53284 5.70874 5.53284C5.69077 5.84275 5.66201 6.09895 5.66201 6.35427C5.65841 9.49999 5.66021 12.6448 5.66021 15.7888C5.66021 15.9314 5.6674 16.0723 5.65841 16.2158C5.62965 16.6622 5.55774 16.7079 4.97262 16.634C4.97262 12.7179 4.97262 8.79566 4.97262 4.83908C5.17036 4.82323 5.33124 4.80034 5.49123 4.80034C7.04437 4.79858 8.5975 4.80738 10.1515 4.79681C10.9038 4.79153 11.4404 5.09792 11.8107 5.73622C12.2646 6.52067 11.933 7.81311 11.1429 8.24011C11.0225 8.30526 10.8715 8.33872 10.7322 8.33872C9.28329 8.34401 7.83442 8.34048 6.38375 8.33696C6.346 8.33608 6.30825 8.30615 6.23095 8.26917Z" fill="#FAB957"/>
<path d="M70.2258 4.18233C70.0909 4.28798 69.9669 4.38482 69.8168 4.50104C69.6964 4.40419 69.5795 4.32495 69.4824 4.22987C69.0357 3.7923 68.6259 3.31688 68.1468 2.91805C67.2507 2.16882 66.1955 1.73301 65.0495 1.44776C63.802 1.13785 62.5769 1.18892 61.3743 1.52876C59.4033 2.08782 57.8178 3.1945 56.7904 4.96854C56.0345 6.27155 55.5681 7.68197 55.7191 9.19277C56.0175 12.1791 57.4915 14.3916 60.3326 15.6717C61.821 16.3417 63.376 16.4685 64.9408 16.1621C66.6251 15.8328 68.0596 14.9947 69.1921 13.704C69.3 13.5825 69.3845 13.4416 69.4923 13.321C69.6919 13.1027 69.8995 13.0798 70.0828 13.2541C70.2734 13.4372 70.1835 13.5728 70.0397 13.7656C69.167 14.9331 68.0111 15.7334 66.6899 16.3329C65.2158 17.0029 63.6483 17.1508 62.0835 16.9096C60.4602 16.6578 58.988 15.9702 57.7674 14.8556C56.6349 13.8246 55.8521 12.5832 55.3937 11.1217C54.9614 9.74478 54.9002 8.34317 55.2355 6.98733C55.8404 4.5345 57.2767 2.64864 59.6181 1.47593C61.3671 0.601682 63.216 0.375418 65.1044 0.751354C67.2031 1.16955 68.909 2.26743 70.1709 3.98864C70.1898 4.02209 70.1916 4.06787 70.2258 4.18233Z" fill="#FAB957"/>
<path d="M69.125 12.7386C67.3498 15.2742 64.2094 16.2805 61.2595 15.3658C58.3078 14.4493 56.3817 11.9013 56.3781 8.79347C56.3763 5.68737 58.2593 3.20989 61.0366 2.29514C64.1195 1.27826 67.295 2.20885 69.1645 4.89412C69.0369 5.00505 68.9075 5.12127 68.7484 5.25949C68.6315 5.17321 68.4967 5.10982 68.4122 5.00769C67.9871 4.48561 67.5107 4.02251 66.9382 3.65714C66.1949 3.18259 65.4318 2.7776 64.5195 2.70717C64.0926 2.67371 63.6629 2.50644 63.2468 2.54341C60.8083 2.76176 58.8822 3.78656 57.7479 6.01312C57.2796 6.9314 56.9866 7.89457 57.0477 8.91673C57.1772 11.0922 58.1209 12.8205 60.0102 14.0469C61.5022 15.0145 63.1542 15.1316 64.8071 14.8507C66.1499 14.6236 67.3022 13.8831 68.1893 12.8214C68.2289 12.7738 68.2702 12.7298 68.3097 12.6823C68.6747 12.2597 68.7268 12.2632 69.125 12.7386Z" fill="#FAB957"/>
<path d="M68.0283 5.70185C67.827 5.80045 67.6643 5.87793 67.4881 5.96421C66.8653 5.14983 66.0968 4.52737 65.1144 4.20426C63.1397 3.55716 61.3547 3.89612 59.8645 5.33295C57.4009 7.70743 58.1208 11.8242 61.3457 13.2593C63.3491 14.1494 65.6258 13.6511 67.107 12.0567C67.1484 12.0127 67.1682 11.951 67.2077 11.907C67.5511 11.5275 67.6346 11.5311 67.996 11.9352C67.0315 13.711 64.4664 14.6785 62.6139 14.3519C59.4133 13.7876 57.7415 11.274 57.7145 8.837C57.684 6.07074 59.709 3.78607 62.2733 3.30272C64.6308 2.85987 66.9489 3.83713 68.0283 5.70185Z" fill="#FAB957"/>
<path d="M66.4438 10.8574C66.957 11.2193 66.9696 11.2721 66.6434 11.6243C64.284 14.1722 60.3418 13.1087 59.2965 10.2033C58.5928 8.24789 59.4709 5.79594 61.6397 4.87854C63.3528 4.15396 65.3437 4.52022 66.6146 5.95793C66.9858 6.37613 66.984 6.39022 66.4079 6.6966C65.4489 5.49396 64.1528 5.05199 62.6212 5.29322C61.7916 5.42352 61.1436 5.87694 60.5836 6.49234C59.4583 7.72845 59.4278 10.0378 60.7921 11.3267C61.6146 12.1023 62.5942 12.4836 63.7456 12.3726C64.8619 12.2626 65.7131 11.6824 66.4438 10.8574Z" fill="#FAB957"/>
<path d="M74.1268 0.433313C74.3515 0.433313 74.5484 0.433313 74.7317 0.433313C74.8881 0.904335 74.9115 16.3204 74.7569 16.9446C74.5681 16.9446 74.3695 16.9446 74.125 16.9446C74.1268 11.4402 74.1268 5.95703 74.1268 0.433313Z" fill="#FAB957"/>
<path d="M71.8825 16.9509C71.7046 16.9597 71.5077 16.9685 71.2651 16.979C71.2651 11.443 71.2651 5.95802 71.2651 0.434299C71.4916 0.434299 71.6884 0.434299 71.8771 0.434299C72.0317 0.909723 72.0425 16.346 71.8825 16.9509Z" fill="#FAB957"/>
<path d="M73.3217 0.467058C73.3217 5.97317 73.3217 11.4388 73.3217 16.8973C72.7437 16.9959 72.7006 16.9695 72.6664 16.4897C72.6538 16.3277 72.661 16.1657 72.661 16.0028C72.661 11.1174 72.661 6.23201 72.661 1.34483C72.661 1.18283 72.6538 1.02084 72.6682 0.857962C72.706 0.437124 72.7635 0.401908 73.3217 0.467058Z" fill="#FAB957"/>
<path d="M76.1301 16.9474C75.6079 16.958 75.5702 16.9368 75.5306 16.5486C75.5126 16.369 75.5198 16.1832 75.5198 16.0019C75.5198 11.12 75.5198 6.2363 75.5198 1.3544C75.5198 1.17304 75.5108 0.98727 75.5324 0.807666C75.5773 0.435251 75.6438 0.403554 76.1175 0.467825C76.238 0.92564 76.2559 16.2933 76.1301 16.9474Z" fill="#FAB957"/>
<path d="M77.2145 16.8794C77.7169 15.6574 78.2041 14.4873 78.6759 13.3093C79.0561 12.3594 79.4084 11.398 79.785 10.448C80.1634 9.49274 80.5589 8.54542 80.9409 7.59193C81.3445 6.58386 81.7382 5.57138 82.1399 4.56331C82.6531 3.27614 83.1655 1.98898 83.6841 0.705331C83.8656 0.253679 84.2566 0.421839 84.6629 0.395426C86.8892 5.88217 89.0562 11.383 91.2951 16.9472C90.9419 16.9472 90.7244 16.9472 90.4853 16.9472C88.4423 11.8417 86.4047 6.7529 84.3258 1.55581C84.1676 1.77592 84.0274 1.91238 83.96 2.07614C83.1897 3.97519 82.4248 5.87336 81.6707 7.77946C80.9364 9.63273 80.2219 11.4922 79.4893 13.3472C79.0696 14.4107 78.6346 15.4664 78.2041 16.5264C78.0027 17.0159 77.9182 17.0493 77.2145 16.8794Z" fill="#FAB957"/>
<path d="M88.618 0.514272C89.1815 0.236061 89.417 0.436797 89.5878 0.857635C90.2772 2.55331 90.9666 4.24987 91.6434 5.95083C92.3723 7.78473 93.0779 9.6248 93.8086 11.4587C94.4548 13.0769 95.1226 14.6872 95.7743 16.3036C95.848 16.485 95.8713 16.6866 95.9181 16.8732C95.288 17.0493 95.2431 17.0212 95.0489 16.5404C94.3865 14.9011 93.7079 13.2662 93.0509 11.6251C92.5808 10.4506 92.1458 9.26471 91.6757 8.09023C91.1158 6.69038 90.527 5.29932 89.9662 3.89946C89.5752 2.93013 89.2103 1.94935 88.8301 0.976489C88.7717 0.82946 88.6998 0.690354 88.618 0.514272Z" fill="#FAB957"/>
<path d="M92.7582 16.9594C92.476 16.9594 92.2737 16.9594 92.0508 16.9594C89.8532 11.4638 87.6629 5.98588 85.4707 0.506177C86.1744 0.273747 86.2248 0.397004 86.4585 0.926133C86.8423 1.7951 87.1712 2.68608 87.5263 3.56738C87.946 4.60979 88.3738 5.64603 88.7882 6.68932C89.2421 7.83034 89.6789 8.97576 90.1346 10.1168C90.7916 11.7579 91.4612 13.3928 92.1236 15.0321C92.3178 15.5155 92.5128 15.9997 92.6926 16.4883C92.7384 16.6134 92.7312 16.7595 92.7582 16.9594Z" fill="#FAB957"/>
<path d="M94.3456 16.9402C94.067 16.9402 93.8522 16.9402 93.6293 16.9402C91.4308 11.4482 89.2458 5.98959 87.0626 0.531024C87.6711 0.310921 87.8149 0.347897 88.0198 0.835647C88.3057 1.51973 88.5654 2.21437 88.8351 2.90374C89.2979 4.08349 89.7545 5.26413 90.2264 6.44036C90.6084 7.39033 91.0165 8.32885 91.3949 9.27882C91.8703 10.4691 92.3197 11.6691 92.7988 12.8595C93.2725 14.0375 93.7686 15.204 94.2441 16.382C94.3088 16.5431 94.3088 16.7262 94.3456 16.9402Z" fill="#FAB957"/>
<path d="M84.273 3.19609C84.7251 3.61604 84.815 3.97525 84.5751 4.49205C84.1409 5.42441 83.7976 6.39815 83.4138 7.3534C82.9275 8.56133 82.4386 9.76838 81.9559 10.9781C81.4032 12.3621 80.8558 13.7478 80.3093 15.1336C80.117 15.6187 79.9345 16.1082 79.7422 16.5933C79.575 17.0151 79.442 17.0538 78.8065 16.8698C80.623 12.3251 82.4395 7.7848 84.273 3.19609Z" fill="#FAB957"/>
<path d="M80.3944 16.8457C81.9439 12.9648 83.4935 9.08661 85.0457 5.20222C85.4726 5.52621 85.6128 5.87221 85.4475 6.28689C84.9127 7.63392 84.3635 8.97391 83.8224 10.3174C83.4296 11.2868 83.036 12.2552 82.6486 13.2263C82.1965 14.362 81.7615 15.5039 81.3058 16.6397C81.1521 17.0227 80.9903 17.0561 80.3944 16.8457Z" fill="#FAB957"/>
<path d="M81.966 16.8481C83.2513 13.6267 84.5348 10.4079 85.8228 7.1759C86.2569 7.55536 86.3684 7.91282 86.1886 8.35214C85.3644 10.3815 84.533 12.4056 83.7079 14.4349C83.4293 15.1243 83.1587 15.8154 82.8927 16.5101C82.6949 17.0269 82.6068 17.0691 81.966 16.8481Z" fill="#FAB957"/>
<path d="M89.2367 14.9097C87.4643 14.9097 85.7557 14.9097 84.0371 14.9097C84.2259 14.245 84.2475 14.2221 84.8541 14.2204C86.0334 14.2168 87.2135 14.2168 88.3927 14.2204C88.9635 14.2239 88.9635 14.2327 89.2367 14.9097Z" fill="#FAB957"/>
<path d="M88.5295 13.5229C88.3803 13.5422 88.2203 13.5775 88.0613 13.5792C87.113 13.5845 86.1639 13.588 85.2156 13.5792C84.6269 13.5739 84.6018 13.5282 84.7941 12.8811C84.9757 12.8687 85.1779 12.8423 85.3774 12.8423C86.2627 12.8388 87.1499 12.83 88.0361 12.8476C88.5511 12.8582 88.5996 12.9427 88.5295 13.5229Z" fill="#FAB957"/>
<path d="M88.0307 12.0863C87.1112 12.0863 86.1891 12.0863 85.2714 12.0863C85.2031 11.4462 85.248 11.3864 85.8367 11.3776C86.3733 11.3688 86.9099 11.3688 87.4456 11.3776C87.9076 11.3864 88.0343 11.5413 88.0307 12.0863Z" fill="#FAB957"/>
<path d="M26.0304 16.1627V4.63636C26.0304 4.32998 25.777 4.07906 25.4615 4.07906H22.3624C22.0496 4.07906 21.7935 3.83078 21.7935 3.52176V1.24765C21.7935 0.941262 22.0469 0.690345 22.3624 0.690345H33.4321C33.7449 0.690345 34.001 0.938621 34.001 1.24765V3.52176C34.001 3.82814 33.7476 4.07906 33.4321 4.07906H30.333C30.0202 4.07906 29.7641 4.32733 29.7641 4.63636V16.1636C29.7641 16.47 29.5106 16.7209 29.1951 16.7209H26.5994C26.2857 16.72 26.0304 16.47 26.0304 16.1627Z" fill="#FAB957"/>
<path d="M47.3479 16.718H44.5616C44.3422 16.718 44.14 16.593 44.0465 16.3976L41.7501 11.6037C41.4427 11.013 40.9529 10.7171 40.285 10.7171H39.7287C39.4159 10.7171 39.1597 10.9654 39.1597 11.2744V16.1616C39.1597 16.468 38.9063 16.7189 38.5908 16.7189H36.0939C35.7811 16.7189 35.525 16.4706 35.525 16.1616V1.2474C35.525 0.941016 35.7784 0.690099 36.0939 0.690099H42.2714C43.9845 0.690099 45.2734 1.11182 46.1354 1.95261C46.9991 2.79341 47.4296 4.01014 47.4296 5.60193C47.4296 6.81514 47.1348 7.84082 46.5461 8.68162C46.1695 9.21955 45.6931 9.64567 45.1188 9.95646C44.7773 10.1413 44.7224 10.6124 45.0235 10.8571C45.4037 11.1653 45.7309 11.6046 46.0041 12.1707L47.8584 15.9169C48.0426 16.2884 47.7694 16.718 47.3479 16.718ZM43.4479 7.14618C43.8021 6.85916 43.9809 6.38814 43.9809 5.73751C43.9809 5.07104 43.803 4.58945 43.4479 4.29363C43.0929 3.99781 42.5069 3.85078 41.6917 3.85078H39.69C39.3773 3.85078 39.1211 4.09906 39.1211 4.40809V7.02292C39.1211 7.3293 39.3746 7.58022 39.69 7.58022H41.6917C42.506 7.57846 43.0929 7.43583 43.4479 7.14618Z" fill="#FAB957"/>
<path d="M49.7224 16.1607V1.2474C49.7224 0.941016 49.9758 0.690099 50.2913 0.690099H52.8493C53.1621 0.690099 53.4183 0.938374 53.4183 1.2474V16.1607C53.4183 16.4671 53.1648 16.718 52.8493 16.718H50.2913C49.9767 16.718 49.7224 16.468 49.7224 16.1607Z" fill="#FAB957"/>
<path d="M17.8581 0.572647H15.6928C15.4609 0.572647 15.2515 0.709991 15.1652 0.922171L15.016 1.28402C14.9333 1.48299 14.9747 1.71455 15.1257 1.8695C16.0308 2.79657 16.6698 3.97457 16.926 5.28462C16.9314 5.31104 16.9386 5.33921 16.9494 5.36562L18.4755 9.3944C18.6139 9.75801 18.3389 10.1454 17.9425 10.1454H16.3211C16.1341 10.1454 15.9553 10.2317 15.8492 10.3831C14.5981 12.1836 12.4904 13.3677 10.1041 13.3677H10.0322L9.01472 15.8337C8.86372 16.2009 9.13875 16.5988 9.54232 16.5988H12.0194C12.2567 16.5988 12.4697 16.4544 12.5524 16.237L13.5402 13.6415C13.6229 13.4232 13.835 13.2797 14.0732 13.2797H19.5487C19.786 13.2797 19.999 13.4241 20.0817 13.6415L21.0695 16.237C21.1522 16.4553 21.3643 16.5988 21.6025 16.5988H24.0176C24.4211 16.5988 24.6962 16.1982 24.5452 15.8337L18.3794 0.91953C18.2967 0.709992 18.0899 0.572647 17.8581 0.572647Z" fill="#FAB957"/>
<path d="M6.25486 12.5734C6.23329 12.3568 6.21171 12.1534 6.18655 11.9069C6.43642 11.891 6.61707 11.8681 6.79684 11.8681C7.89517 11.8646 8.99262 11.8435 10.091 11.8717C12.4503 11.9333 14.4106 10.4595 15.1791 8.49879C16.2846 5.68323 14.7899 2.718 12.1825 1.71609C11.4571 1.43788 10.7228 1.29965 9.95254 1.29965C7.38376 1.30141 4.81587 1.29965 2.24709 1.29965C2.10148 1.29965 1.95767 1.29261 1.81117 1.30493C1.4112 1.33663 1.35907 1.39298 1.33929 1.79004C1.3339 1.91154 1.33929 2.03304 1.33929 2.15541C1.33929 6.74149 1.33929 11.3249 1.33929 15.911C1.33929 16.1487 1.33929 16.3873 1.33929 16.6567C1.06785 16.6567 0.874611 16.6567 0.69485 16.6567C0.565422 16.1593 0.538458 1.41323 0.664291 0.706253C0.863826 0.681601 1.08403 0.632298 1.30154 0.632298C4.28378 0.627016 7.26601 0.65519 10.2491 0.621734C12.9689 0.5918 15.3409 2.4574 16.0267 4.88822C16.7035 7.28735 16.1309 9.44964 14.2317 11.1841C13.3213 12.0178 12.178 12.4659 10.9682 12.5469C9.43033 12.6526 7.87271 12.5734 6.25486 12.5734Z" fill="#FAB957"/>
<path d="M2.1096 16.6553C2.1096 11.7734 2.1096 6.93375 2.1096 2.05009C2.32171 2.03249 2.50058 2.00607 2.68034 2.00607C5.24912 2.00255 7.81521 2.00079 10.384 2.00607C12.1843 2.0096 13.9424 3.35839 14.5509 4.94666C14.887 5.82443 14.9221 6.72245 14.7306 7.57381C14.372 9.16736 13.4273 10.3718 11.7807 10.9132C11.3969 11.04 10.9835 11.1316 10.5799 11.1404C9.27487 11.1685 7.9698 11.1545 6.66654 11.1509C6.4652 11.1509 6.23062 11.1862 6.18388 10.8974C6.14613 10.6597 6.28994 10.4686 6.55509 10.444C6.77979 10.4228 7.01078 10.4352 7.23728 10.4352C8.2718 10.4334 9.30902 10.4123 10.3435 10.4387C11.9434 10.4792 13.3438 9.38042 13.7977 8.06773C14.5949 5.7584 13.7114 4.09882 11.8446 3.06081C11.4877 2.86184 11.0275 2.75971 10.6132 2.75443C8.12889 2.72449 5.6437 2.73682 3.1576 2.73506C3.07671 2.73506 2.99582 2.75443 2.84122 2.77556C2.82505 3.0256 2.79449 3.28003 2.79449 3.53183C2.79089 7.60991 2.79269 11.6862 2.79269 15.7643C2.79269 15.9069 2.79808 16.0478 2.79089 16.1913C2.77022 16.6623 2.72348 16.6958 2.1096 16.6553Z" fill="#FAB957"/>
<path d="M4.19012 16.6563C3.92946 16.6563 3.73802 16.6563 3.50253 16.6563C3.50253 12.2595 3.50253 7.90936 3.50253 3.50025C3.73262 3.47736 3.95103 3.4351 4.17034 3.4351C6.17917 3.42981 8.1898 3.48088 10.1968 3.41749C11.8776 3.36466 13.2725 4.73459 13.4514 6.23833C13.6078 7.55367 12.9022 9.1842 11.2682 9.6024C10.8341 9.71333 10.3811 9.78904 9.93258 9.80137C8.9394 9.8313 7.94352 9.81017 6.95035 9.81017C6.74542 9.81017 6.53959 9.81017 6.35624 9.81017C6.07581 9.19652 6.14232 9.07855 6.74003 9.07503C7.85814 9.06975 8.97715 9.04509 10.0953 9.08031C11.3284 9.11905 12.3054 8.35749 12.6065 7.36527C12.9031 6.38537 12.6335 5.38697 11.687 4.62013C11.2547 4.26885 10.7478 4.11565 10.1986 4.11213C8.39652 4.10333 6.59532 4.10685 4.79321 4.11213C4.61345 4.11213 4.43459 4.15439 4.19191 4.18433C4.19012 8.35925 4.19012 12.4902 4.19012 16.6563Z" fill="#FAB957"/>
<path d="M6.23095 8.26917C6.20398 7.70658 6.23994 7.6432 6.71181 7.63968C7.81015 7.62911 8.90759 7.63791 10.0059 7.63439C10.2127 7.63439 10.4239 7.63615 10.6234 7.59565C10.9254 7.53403 11.1492 7.36322 11.187 7.03659C11.2103 6.83585 11.2319 6.63072 11.2211 6.42998C11.1852 5.7952 10.9137 5.54517 10.2297 5.53636C9.17364 5.5258 8.11664 5.53284 7.06055 5.53284C6.63002 5.53284 6.19859 5.53284 5.70874 5.53284C5.69077 5.84275 5.66201 6.09895 5.66201 6.35427C5.65841 9.49999 5.66021 12.6448 5.66021 15.7888C5.66021 15.9314 5.6674 16.0723 5.65841 16.2158C5.62965 16.6622 5.55774 16.7079 4.97262 16.634C4.97262 12.7179 4.97262 8.79566 4.97262 4.83908C5.17036 4.82323 5.33124 4.80034 5.49123 4.80034C7.04437 4.79858 8.5975 4.80738 10.1515 4.79681C10.9038 4.79153 11.4404 5.09792 11.8107 5.73622C12.2646 6.52067 11.933 7.81311 11.1429 8.24011C11.0225 8.30526 10.8715 8.33872 10.7322 8.33872C9.28329 8.34401 7.83442 8.34048 6.38375 8.33696C6.346 8.33608 6.30825 8.30615 6.23095 8.26917Z" fill="#FAB957"/>
</svg>
